<?xml version="1.0" encoding="UTF-8"?>
<svg id="Calque_2" data-name="Calque 2" xmlns="http://www.w3.org/2000/svg" xmlns:xlink="http://www.w3.org/1999/xlink" viewBox="0 0 526.73 526.73">
  <defs>
    <style>
      .cls-1 {
        stroke-width: 6.23px;
      }

      .cls-1, .cls-2 {
        fill: none;
        stroke: #f8f1e8;
        stroke-miterlimit: 10;
      }

      .cls-2 {
        stroke-width: 2.69px;
      }

      .cls-3 {
        fill: #f8f1e8;
      }

      .cls-3, .cls-4 {
        stroke-width: 0px;
      }

      .cls-4 {
        fill: url(#Dégradé_sans_nom_6);
      }
    </style>
    <linearGradient id="Dégradé_sans_nom_6" data-name="Dégradé sans nom 6" x1="264.09" y1="24.05" x2="261.97" y2="723.7" gradientUnits="userSpaceOnUse">
      <stop offset=".05" stop-color="#964022"/>
      <stop offset=".75" stop-color="#bb5e36"/>
    </linearGradient>
  </defs>
  <g id="Calque_6" data-name="Calque 6">
    <circle class="cls-4" cx="263.36" cy="263.36" r="263.36"/>
  </g>
  <g id="Calque_3" data-name="Calque 3">
    <path class="cls-3" d="M263.36,32.36c64.01,0,122.01,26.17,163.89,68.37h2.95c-.69-.71-1.37-1.43-2.08-2.13-44.01-44.01-102.52-68.25-164.76-68.25s-120.75,24.24-164.76,68.25S31.02,199.58,30.39,260.89c.57-.32,1.24-.53,2.01-.59,1.65-125.97,104.61-227.94,230.97-227.94Z"/>
    <path class="cls-3" d="M476.02,173.19c11.8,27.72,18.35,58.19,18.35,90.17,0,127.38-103.63,231-231.01,231-95.42,0-177.48-58.16-212.66-140.88-.6.4-1.19.79-1.8,1.18,11.53,27.1,28.25,52.01,49.7,73.46,44.01,44.01,102.52,68.25,164.76,68.25s120.75-24.24,164.76-68.25c44.01-44.01,68.25-102.52,68.25-164.76,0-31.84-6.35-62.7-18.44-91.14-.63.33-1.26.65-1.9.96Z"/>
    <path class="cls-3" d="M460.11,184.37c10.88,25.55,16.91,53.64,16.91,83.12,0,117.41-95.52,212.93-212.93,212.93-87.95,0-163.59-53.61-196.02-129.86-.55.37-1.1.73-1.66,1.09,10.63,24.98,26.04,47.94,45.81,67.71,40.56,40.56,94.5,62.9,151.86,62.9s111.3-22.34,151.87-62.9c40.57-40.56,62.91-94.5,62.91-151.87,0-29.35-5.85-57.79-17-84.01-.58.3-1.17.6-1.75.89Z"/>
  </g>
  <g id="Calque_4" data-name="Calque 4">
    <g>
      <path class="cls-3" d="M245.98,214.78c0-.53.12-.99.32-1.39-15.13-43.02-35.26-84.77-56.4-84.77-43.58,0-103.49,177.59-103.49,177.59h26.02s50.23-143.29,74.44-147.16c21.43-3.43,51.39,114.5,57.99,141.64.5-1.13.99-2.27,1.42-3.42-.1-27.5-.3-54.99-.3-82.49Z"/>
      <g>
        <rect class="cls-3" x="244.12" y="181.05" width="3.76" height="203.59"/>
        <rect class="cls-3" x="253.63" y="181.05" width="3.76" height="203.59"/>
        <rect class="cls-3" x="263.21" y="181.05" width="3.76" height="203.59"/>
        <rect class="cls-3" x="319.31" y="224.2" width="19.99" height="117.28" transform="translate(46.46 612.15) rotate(-90)"/>
      </g>
      <rect class="cls-3" x="372.36" y="181.05" width="28.45" height="203.59" rx="10.63" ry="10.63"/>
      <path class="cls-3" d="M299.67,322.76c6.75-8.67,14.51-16.48,22.49-23.99,0,0,1.54-1.43,1.54-1.43,3.9,4.26,7.72,8.61,11.36,13.1,3.19,4,6.32,8.02,9.13,12.32-2.04-1.58-3.96-3.27-5.88-4.95-5.69-5.1-11.08-10.53-16.25-16.13,0,0,2.94.11,2.94.11-7.99,7.51-16.26,14.77-25.32,20.98h0Z"/>
      <polygon class="cls-3" points="299.67 264.86 323.75 228.26 346.35 264.86 299.67 264.86"/>
      <polygon class="cls-3" points="322.77 312.71 313.03 321.13 322.77 329.33 331.21 321.13 322.77 312.71"/>
      <polygon class="cls-1" points="135.87 225.83 182.52 241.47 236.75 224.29 236.75 239.94 183.32 256.65 133.48 240.47 133.48 225.83 135.87 225.83"/>
      <ellipse class="cls-2" cx="185.11" cy="212.49" rx="13.91" ry="12.72"/>
      <ellipse class="cls-3" cx="185.11" cy="212.49" rx="5.61" ry="5.13"/>
    </g>
  </g>
  <g id="Calque_7" data-name="Calque 7">
    <circle class="cls-3" cx="38.14" cy="313.27" r="7.75"/>
    <circle class="cls-3" cx="453.68" cy="143.43" r="7.75"/>
  </g>
</svg>